ffmpeg started on 2025-05-28 at 20:43:34
Report written to "D:\Convert\FFMetrics\reports\ssim_report-6.txt"
Log level: 32
Command line:
ffmpeg -hide_banner -nostdin -i "G:\\\xc0\xed\xe8\xec\xe5\\\xce\xed\xe3\xee\xe8\xed\xe3\xe8\\!_36_\xce\xf1\xe5\xed\xfc_2024\\JamClub\\\xc8\xf1\xf2\xee\xf0\xe8\xff \xee \xf2\xee\xec, \xea\xe0\xea \xff \xef\xf0\xe8\xf8\xb8\xeb \xed\xe0 \xe2\xe5\xf7\xe5\xf0\xe8\xed\xea\xf3, \xe0 \xf2\xe0\xec \xed\xe5 \xe1\xfb\xeb\xee \xed\xe8 \xee\xe4\xed\xee\xe9 \xe6\xe5\xed\xf9\xe8\xed\xfb\\JamClub_Goukon_ni_Ittara_Onna_ga_Inakatta_Hanashi_07_1080p_HEVC.mkv" -i "G:\\\xc0\xed\xe8\xec\xe5\\\xce\xed\xe3\xee\xe8\xed\xe3\xe8\\!_36_\xce\xf1\xe5\xed\xfc_2024\\JamClub\\\xc8\xf1\xf2\xee\xf0\xe8\xff \xee \xf2\xee\xec, \xea\xe0\xea \xff \xef\xf0\xe8\xf8\xb8\xeb \xed\xe0 \xe2\xe5\xf7\xe5\xf0\xe8\xed\xea\xf3, \xe0 \xf2\xe0\xec \xed\xe5 \xe1\xfb\xeb\xee \xed\xe8 \xee\xe4\xed\xee\xe9 \xe6\xe5\xed\xf9\xe8\xed\xfb\\JamClub_Goukon_ni_Ittara_Onna_ga_Inakatta_Hanashi_07_1080p.mp4" -lavfi "[0:v]settb=AVTB,setpts=PTS-STARTPTS,format=pix_fmts=yuv420p10,fps=24000/1001,scale=1920:1080:flags=bicubic[main];[1:v]settb=AVTB,setpts=PTS-STARTPTS,format=pix_fmts=yuv420p,fps=24000/1001,scale=1920:1080:flags=bicubic[ref];[main][ref]ssim=eof_action=endall:stats_file='D\\:/Convert/FFMetrics/logs/ssim_logfile-6.txt'" -f null -
Input #0, matroska,webm, from 'G:\Аниме\Онгоинги\!_36_Осень_2024\JamClub\История о том, как я пришёл на вечеринку, а там не было ни одной женщины\JamClub_Goukon_ni_Ittara_Onna_ga_Inakatta_Hanashi_07_1080p_HEVC.mkv':
  Metadata:
    COMPATIBLE_BRANDS: isomiso2avc1mp41
    MAJOR_BRAND     : isom
    MINOR_VERSION   : 512
    ENCODER         : Lavf61.7.100
  Duration: 00:24:21.25, start: -0.001000, bitrate: 1021 kb/s
  Stream #0:0: Video: hevc (Main 10), yuv420p10le(tv, bt709, progressive), 1920x1080 [SAR 1:1 DAR 16:9], 23.98 fps, 23.98 tbr, 1k tbn (default)
      Metadata:
        HANDLER_NAME    : VideoHandler
        VENDOR_ID       : [0][0][0][0]
        ENCODER         : Lavc61.19.100 libx265
        BPS             : 823696
        DURATION        : 00:24:21.167708333
        NUMBER_OF_FRAMES: 35033
        NUMBER_OF_BYTES : 150444796
        _STATISTICS_WRITING_APP: mkvpropedit v66.0.0 ('Josie') 64-bit
        _STATISTICS_WRITING_DATE_UTC: 2025-05-28 10:35:50
        _STATISTICS_TAGS: BPS DURATION NUMBER_OF_FRAMES NUMBER_OF_BYTES
  Stream #0:1(eng): Audio: aac (LC), 48000 Hz, stereo, fltp (default)
      Metadata:
        HANDLER_NAME    : SoundHandler
        VENDOR_ID       : [0][0][0][0]
        ENCODER         : Lavc61.19.100 aac
        BPS             : 193431
        DURATION        : 00:24:21.208000000
        NUMBER_OF_FRAMES: 68495
        NUMBER_OF_BYTES : 35330477
        _STATISTICS_WRITING_APP: mkvpropedit v66.0.0 ('Josie') 64-bit
        _STATISTICS_WRITING_DATE_UTC: 2025-05-28 10:35:50
        _STATISTICS_TAGS: BPS DURATION NUMBER_OF_FRAMES NUMBER_OF_BYTES
Input #1, mov,mp4,m4a,3gp,3g2,mj2, from 'G:\Аниме\Онгоинги\!_36_Осень_2024\JamClub\История о том, как я пришёл на вечеринку, а там не было ни одной женщины\JamClub_Goukon_ni_Ittara_Onna_ga_Inakatta_Hanashi_07_1080p.mp4':
  Metadata:
    major_brand     : isom
    minor_version   : 512
    compatible_brands: isomiso2avc1mp41
    encoder         : Lavf60.16.100
  Duration: 00:24:21.23, start: 0.000000, bitrate: 2892 kb/s
  Stream #1:0[0x1](und): Video: h264 (High) (avc1 / 0x31637661), yuv420p(progressive), 1920x1080 [SAR 1:1 DAR 16:9], 2694 kb/s, 23.98 fps, 23.98 tbr, 90k tbn (default)
      Metadata:
        handler_name    : VideoHandler
        vendor_id       : [0][0][0][0]
  Stream #1:1[0x2](eng): Audio: aac (LC) (mp4a / 0x6134706D), 48000 Hz, stereo, fltp, 191 kb/s (default)
      Metadata:
        handler_name    : SoundHandler
        vendor_id       : [0][0][0][0]
Stream mapping:
  Stream #0:0 (hevc) -> settb:default
  Stream #1:0 (h264) -> settb:default
  ssim:default -> Stream #0:0 (wrapped_avframe)
  Stream #0:1 -> #0:1 (aac (native) -> pcm_s16le (native))
Output #0, null, to 'pipe:':
  Metadata:
    COMPATIBLE_BRANDS: isomiso2avc1mp41
    MAJOR_BRAND     : isom
    MINOR_VERSION   : 512
    encoder         : Lavf61.7.100
  Stream #0:0: Video: wrapped_avframe, yuv420p10le(tv, bt709, progressive), 1920x1080 [SAR 1:1 DAR 16:9], q=2-31, 200 kb/s, 23.98 fps, 23.98 tbn
      Metadata:
        encoder         : Lavc61.19.100 wrapped_avframe
  Stream #0:1(eng): Audio: pcm_s16le, 48000 Hz, stereo, s16, 1536 kb/s (default)
      Metadata:
        HANDLER_NAME    : SoundHandler
        VENDOR_ID       : [0][0][0][0]
        _STATISTICS_TAGS: BPS DURATION NUMBER_OF_FRAMES NUMBER_OF_BYTES
        BPS             : 193431
        DURATION        : 00:24:21.208000000
        NUMBER_OF_FRAMES: 68495
        NUMBER_OF_BYTES : 35330477
        _STATISTICS_WRITING_APP: mkvpropedit v66.0.0 ('Josie') 64-bit
        _STATISTICS_WRITING_DATE_UTC: 2025-05-28 10:35:50
        encoder         : Lavc61.19.100 pcm_s16le
frame=  111 fps=0.0 q=-0.0 size=N/A time=00:00:04.62 bitrate=N/A speed=9.21x    frame=  271 fps=264 q=-0.0 size=N/A time=00:00:11.30 bitrate=N/A speed=  11x    frame=  473 fps=306 q=-0.0 size=N/A time=00:00:19.72 bitrate=N/A speed=12.7x    frame=  710 fps=345 q=-0.0 size=N/A time=00:00:29.61 bitrate=N/A speed=14.4x    frame=  915 fps=356 q=-0.0 size=N/A time=00:00:38.16 bitrate=N/A speed=14.9x    frame= 1145 fps=370 q=-0.0 size=N/A time=00:00:47.75 bitrate=N/A speed=15.4x    frame= 1380 fps=384 q=-0.0 size=N/A time=00:00:57.55 bitrate=N/A speed=  16x    frame= 1621 fps=393 q=-0.0 size=N/A time=00:01:07.60 bitrate=N/A speed=16.4x    frame= 1870 fps=404 q=-0.0 size=N/A time=00:01:17.99 bitrate=N/A speed=16.8x    frame= 2063 fps=401 q=-0.0 size=N/A time=00:01:26.04 bitrate=N/A speed=16.7x    frame= 2260 fps=398 q=-0.0 size=N/A time=00:01:34.26 bitrate=N/A speed=16.6x    frame= 2517 fps=406 q=-0.0 size=N/A time=00:01:44.97 bitrate=N/A speed=16.9x    frame= 2752 fps=410 q=-0.0 size=N/A time=00:01:54.78 bitrate=N/A speed=17.1x    frame= 2967 fps=410 q=-0.0 size=N/A time=00:02:03.74 bitrate=N/A speed=17.1x    frame= 3188 fps=412 q=-0.0 size=N/A time=00:02:12.96 bitrate=N/A speed=17.2x    frame= 3380 fps=409 q=-0.0 size=N/A time=00:02:20.97 bitrate=N/A speed=17.1x    frame= 3615 fps=412 q=-0.0 size=N/A time=00:02:30.77 bitrate=N/A speed=17.2x    frame= 3855 fps=415 q=-0.0 size=N/A time=00:02:40.78 bitrate=N/A speed=17.3x    frame= 4112 fps=419 q=-0.0 size=N/A time=00:02:51.50 bitrate=N/A speed=17.5x    frame= 4336 fps=420 q=-0.0 size=N/A time=00:03:00.84 bitrate=N/A speed=17.5x    frame= 4566 fps=421 q=-0.0 size=N/A time=00:03:10.44 bitrate=N/A speed=17.6x    frame= 4844 fps=426 q=-0.0 size=N/A time=00:03:22.03 bitrate=N/A speed=17.8x    frame= 5121 fps=432 q=-0.0 size=N/A time=00:03:33.58 bitrate=N/A speed=  18x    frame= 5387 fps=435 q=-0.0 size=N/A time=00:03:44.68 bitrate=N/A speed=18.2x    frame= 5625 fps=436 q=-0.0 size=N/A time=00:03:54.60 bitrate=N/A speed=18.2x    frame= 5876 fps=438 q=-0.0 size=N/A time=00:04:05.07 bitrate=N/A speed=18.3x    frame= 6140 fps=441 q=-0.0 size=N/A time=00:04:16.08 bitrate=N/A speed=18.4x    frame= 6409 fps=443 q=-0.0 size=N/A time=00:04:27.30 bitrate=N/A speed=18.5x    frame= 6679 fps=446 q=-0.0 size=N/A time=00:04:38.56 bitrate=N/A speed=18.6x    frame= 6939 fps=448 q=-0.0 size=N/A time=00:04:49.41 bitrate=N/A speed=18.7x    frame= 7192 fps=450 q=-0.0 size=N/A time=00:04:59.96 bitrate=N/A speed=18.8x    frame= 7424 fps=450 q=-0.0 size=N/A time=00:05:09.64 bitrate=N/A speed=18.8x    frame= 7659 fps=450 q=-0.0 size=N/A time=00:05:19.44 bitrate=N/A speed=18.8x    frame= 7887 fps=449 q=-0.0 size=N/A time=00:05:28.95 bitrate=N/A speed=18.7x    frame= 8125 fps=450 q=-0.0 size=N/A time=00:05:38.88 bitrate=N/A speed=18.8x    frame= 8348 fps=450 q=-0.0 size=N/A time=00:05:48.18 bitrate=N/A speed=18.8x    frame= 8603 fps=451 q=-0.0 size=N/A time=00:05:58.81 bitrate=N/A speed=18.8x    frame= 8817 fps=450 q=-0.0 size=N/A time=00:06:07.74 bitrate=N/A speed=18.8x    frame= 9046 fps=450 q=-0.0 size=N/A time=00:06:17.29 bitrate=N/A speed=18.8x    frame= 9243 fps=448 q=-0.0 size=N/A time=00:06:25.51 bitrate=N/A speed=18.7x    frame= 9515 fps=450 q=-0.0 size=N/A time=00:06:36.85 bitrate=N/A speed=18.8x    frame= 9763 fps=450 q=-0.0 size=N/A time=00:06:47.19 bitrate=N/A speed=18.8x    frame=10007 fps=451 q=-0.0 size=N/A time=00:06:57.37 bitrate=N/A speed=18.8x    frame=10257 fps=452 q=-0.0 size=N/A time=00:07:07.80 bitrate=N/A speed=18.9x    frame=10510 fps=453 q=-0.0 size=N/A time=00:07:18.35 bitrate=N/A speed=18.9x    frame=10768 fps=454 q=-0.0 size=N/A time=00:07:29.11 bitrate=N/A speed=18.9x    frame=11025 fps=455 q=-0.0 size=N/A time=00:07:39.83 bitrate=N/A speed=  19x    frame=11289 fps=456 q=-0.0 size=N/A time=00:07:50.84 bitrate=N/A speed=  19x    frame=11554 fps=457 q=-0.0 size=N/A time=00:08:01.89 bitrate=N/A speed=19.1x    frame=11819 fps=458 q=-0.0 size=N/A time=00:08:12.95 bitrate=N/A speed=19.1x    frame=12015 fps=457 q=-0.0 size=N/A time=00:08:21.12 bitrate=N/A speed=19.1x    frame=12220 fps=455 q=-0.0 size=N/A time=00:08:29.67 bitrate=N/A speed=  19x    frame=12480 fps=456 q=-0.0 size=N/A time=00:08:40.52 bitrate=N/A speed=  19x    frame=12753 fps=458 q=-0.0 size=N/A time=00:08:51.90 bitrate=N/A speed=19.1x    frame=12999 fps=458 q=-0.0 size=N/A time=00:09:02.16 bitrate=N/A speed=19.1x    frame=13233 fps=458 q=-0.0 size=N/A time=00:09:11.92 bitrate=N/A speed=19.1x    frame=13486 fps=459 q=-0.0 size=N/A time=00:09:22.47 bitrate=N/A speed=19.1x    frame=13736 fps=459 q=-0.0 size=N/A time=00:09:32.90 bitrate=N/A speed=19.1x    frame=13990 fps=460 q=-0.0 size=N/A time=00:09:43.54 bitrate=N/A speed=19.2x    frame=14229 fps=460 q=-0.0 size=N/A time=00:09:53.46 bitrate=N/A speed=19.2x    frame=14468 fps=460 q=-0.0 size=N/A time=00:10:03.43 bitrate=N/A speed=19.2x    frame=14734 fps=461 q=-0.0 size=N/A time=00:10:14.53 bitrate=N/A speed=19.2x    frame=14985 fps=461 q=-0.0 size=N/A time=00:10:24.99 bitrate=N/A speed=19.2x    frame=15231 fps=461 q=-0.0 size=N/A time=00:10:35.25 bitrate=N/A speed=19.2x    frame=15474 fps=462 q=-0.0 size=N/A time=00:10:45.39 bitrate=N/A speed=19.2x    frame=15716 fps=462 q=-0.0 size=N/A time=00:10:55.52 bitrate=N/A speed=19.3x    frame=15939 fps=461 q=-0.0 size=N/A time=00:11:04.78 bitrate=N/A speed=19.2x    frame=16192 fps=462 q=-0.0 size=N/A time=00:11:15.34 bitrate=N/A speed=19.3x    frame=16435 fps=462 q=-0.0 size=N/A time=00:11:25.47 bitrate=N/A speed=19.3x    frame=16681 fps=462 q=-0.0 size=N/A time=00:11:35.73 bitrate=N/A speed=19.3x    frame=16951 fps=463 q=-0.0 size=N/A time=00:11:46.99 bitrate=N/A speed=19.3x    frame=17204 fps=463 q=-0.0 size=N/A time=00:11:57.55 bitrate=N/A speed=19.3x    frame=17429 fps=463 q=-0.0 size=N/A time=00:12:06.93 bitrate=N/A speed=19.3x    frame=17692 fps=464 q=-0.0 size=N/A time=00:12:17.90 bitrate=N/A speed=19.3x    frame=17944 fps=464 q=-0.0 size=N/A time=00:12:28.41 bitrate=N/A speed=19.3x    frame=18141 fps=463 q=-0.0 size=N/A time=00:12:36.63 bitrate=N/A speed=19.3x    frame=18349 fps=462 q=-0.0 size=N/A time=00:12:45.30 bitrate=N/A speed=19.3x    frame=18568 fps=462 q=-0.0 size=N/A time=00:12:54.44 bitrate=N/A speed=19.3x    frame=18811 fps=462 q=-0.0 size=N/A time=00:13:04.57 bitrate=N/A speed=19.3x    frame=19065 fps=462 q=-0.0 size=N/A time=00:13:15.16 bitrate=N/A speed=19.3x    frame=19327 fps=463 q=-0.0 size=N/A time=00:13:26.09 bitrate=N/A speed=19.3x    frame=19593 fps=463 q=-0.0 size=N/A time=00:13:37.19 bitrate=N/A speed=19.3x    frame=19863 fps=464 q=-0.0 size=N/A time=00:13:48.45 bitrate=N/A speed=19.4x    frame=20132 fps=465 q=-0.0 size=N/A time=00:13:59.67 bitrate=N/A speed=19.4x    frame=20373 fps=465 q=-0.0 size=N/A time=00:14:09.72 bitrate=N/A speed=19.4x    frame=20594 fps=464 q=-0.0 size=N/A time=00:14:18.94 bitrate=N/A speed=19.4x    frame=20860 fps=465 q=-0.0 size=N/A time=00:14:30.03 bitrate=N/A speed=19.4x    frame=21117 fps=465 q=-0.0 size=N/A time=00:14:40.79 bitrate=N/A speed=19.4x    frame=21396 fps=466 q=-0.0 size=N/A time=00:14:52.39 bitrate=N/A speed=19.4x    frame=21660 fps=467 q=-0.0 size=N/A time=00:15:03.40 bitrate=N/A speed=19.5x    frame=21921 fps=467 q=-0.0 size=N/A time=00:15:14.28 bitrate=N/A speed=19.5x    frame=22161 fps=467 q=-0.0 size=N/A time=00:15:24.29 bitrate=N/A speed=19.5x    frame=22416 fps=467 q=-0.0 size=N/A time=00:15:34.93 bitrate=N/A speed=19.5x    frame=22671 fps=468 q=-0.0 size=N/A time=00:15:45.56 bitrate=N/A speed=19.5x    frame=22931 fps=468 q=-0.0 size=N/A time=00:15:56.41 bitrate=N/A speed=19.5x    frame=23191 fps=468 q=-0.0 size=N/A time=00:16:07.25 bitrate=N/A speed=19.5x    frame=23439 fps=469 q=-0.0 size=N/A time=00:16:17.60 bitrate=N/A speed=19.5x    frame=23710 fps=469 q=-0.0 size=N/A time=00:16:28.90 bitrate=N/A speed=19.6x    frame=23973 fps=470 q=-0.0 size=N/A time=00:16:39.87 bitrate=N/A speed=19.6x    frame=24239 fps=470 q=-0.0 size=N/A time=00:16:50.96 bitrate=N/A speed=19.6x    frame=24495 fps=470 q=-0.0 size=N/A time=00:17:01.64 bitrate=N/A speed=19.6x    frame=24734 fps=470 q=-0.0 size=N/A time=00:17:11.61 bitrate=N/A speed=19.6x    frame=24985 fps=470 q=-0.0 size=N/A time=00:17:22.08 bitrate=N/A speed=19.6x    frame=25261 fps=471 q=-0.0 size=N/A time=00:17:33.59 bitrate=N/A speed=19.6x    frame=25505 fps=471 q=-0.0 size=N/A time=00:17:43.77 bitrate=N/A speed=19.6x    frame=25784 fps=472 q=-0.0 size=N/A time=00:17:55.40 bitrate=N/A speed=19.7x    frame=26041 fps=472 q=-0.0 size=N/A time=00:18:06.12 bitrate=N/A speed=19.7x    frame=26313 fps=472 q=-0.0 size=N/A time=00:18:17.47 bitrate=N/A speed=19.7x    frame=26548 fps=472 q=-0.0 size=N/A time=00:18:27.27 bitrate=N/A speed=19.7x    frame=26805 fps=472 q=-0.0 size=N/A time=00:18:37.99 bitrate=N/A speed=19.7x    frame=27013 fps=472 q=-0.0 size=N/A time=00:18:46.66 bitrate=N/A speed=19.7x    frame=27265 fps=472 q=-0.0 size=N/A time=00:18:57.17 bitrate=N/A speed=19.7x    frame=27537 fps=472 q=-0.0 size=N/A time=00:19:08.52 bitrate=N/A speed=19.7x    frame=27764 fps=472 q=-0.0 size=N/A time=00:19:17.99 bitrate=N/A speed=19.7x    frame=28029 fps=473 q=-0.0 size=N/A time=00:19:29.04 bitrate=N/A speed=19.7x    frame=28259 fps=472 q=-0.0 size=N/A time=00:19:38.63 bitrate=N/A speed=19.7x    frame=28525 fps=473 q=-0.0 size=N/A time=00:19:49.73 bitrate=N/A speed=19.7x    frame=28786 fps=473 q=-0.0 size=N/A time=00:20:00.61 bitrate=N/A speed=19.7x    frame=29029 fps=473 q=-0.0 size=N/A time=00:20:10.75 bitrate=N/A speed=19.7x    frame=29310 fps=474 q=-0.0 size=N/A time=00:20:22.47 bitrate=N/A speed=19.8x    frame=29566 fps=474 q=-0.0 size=N/A time=00:20:33.14 bitrate=N/A speed=19.8x    frame=29823 fps=474 q=-0.0 size=N/A time=00:20:43.86 bitrate=N/A speed=19.8x    frame=30078 fps=474 q=-0.0 size=N/A time=00:20:54.50 bitrate=N/A speed=19.8x    frame=30329 fps=474 q=-0.0 size=N/A time=00:21:04.97 bitrate=N/A speed=19.8x    frame=30585 fps=474 q=-0.0 size=N/A time=00:21:15.64 bitrate=N/A speed=19.8x    frame=30853 fps=475 q=-0.0 size=N/A time=00:21:26.82 bitrate=N/A speed=19.8x    frame=31112 fps=475 q=-0.0 size=N/A time=00:21:37.62 bitrate=N/A speed=19.8x    frame=31354 fps=475 q=-0.0 size=N/A time=00:21:47.72 bitrate=N/A speed=19.8x    frame=31616 fps=475 q=-0.0 size=N/A time=00:21:58.65 bitrate=N/A speed=19.8x    frame=31868 fps=475 q=-0.0 size=N/A time=00:22:09.16 bitrate=N/A speed=19.8x    frame=32133 fps=476 q=-0.0 size=N/A time=00:22:20.21 bitrate=N/A speed=19.8x    frame=32367 fps=475 q=-0.0 size=N/A time=00:22:29.97 bitrate=N/A speed=19.8x    frame=32635 fps=476 q=-0.0 size=N/A time=00:22:41.15 bitrate=N/A speed=19.8x    frame=32852 fps=475 q=-0.0 size=N/A time=00:22:50.20 bitrate=N/A speed=19.8x    frame=33085 fps=475 q=-0.0 size=N/A time=00:22:59.92 bitrate=N/A speed=19.8x    frame=33326 fps=475 q=-0.0 size=N/A time=00:23:09.97 bitrate=N/A speed=19.8x    frame=33559 fps=475 q=-0.0 size=N/A time=00:23:19.68 bitrate=N/A speed=19.8x    frame=33783 fps=475 q=-0.0 size=N/A time=00:23:29.03 bitrate=N/A speed=19.8x    frame=33976 fps=474 q=-0.0 size=N/A time=00:23:37.08 bitrate=N/A speed=19.8x    frame=34205 fps=474 q=-0.0 size=N/A time=00:23:46.63 bitrate=N/A speed=19.8x    frame=34455 fps=474 q=-0.0 size=N/A time=00:23:57.06 bitrate=N/A speed=19.8x    frame=34695 fps=474 q=-0.0 size=N/A time=00:24:07.07 bitrate=N/A speed=19.8x    frame=34923 fps=473 q=-0.0 size=N/A time=00:24:16.58 bitrate=N/A speed=19.7x    [Parsed_ssim_10 @ 000002945ea16a00] SSIM Y:0.995773 (23.739182) U:0.995198 (23.185765) V:0.995127 (23.122039) All:0.995569 (23.535155)
[out#0/null @ 0000029457f84040] video:15053KiB audio:273980KiB subtitle:0KiB other streams:0KiB global headers:0KiB muxing overhead: unknown
frame=35033 fps=473 q=-0.0 Lsize=N/A time=00:24:21.16 bitrate=N/A speed=19.7x    
